{
	"asset":{
		"generator":"Khronos glTF Blender I/O v4.2.57",
		"version":"2.0"
	},
	"scene":0,
	"scenes":[
		{
			"name":"Scene",
			"nodes":[
				3
			]
		}
	],
	"nodes":[
		{
			"name":"Bone.001",
			"rotation":[
				-8.881784197001252e-15,
				2.1354632336522891e-16,
				-9.476276388614051e-17,
				1
			],
			"translation":[
				-6.947155122120918e-16,
				0.5,
				5.443215831139794e-16
			]
		},
		{
			"children":[
				0
			],
			"name":"Bone",
			"rotation":[
				1.1098622110239376e-07,
				0.7071067690849304,
				1.461109491174284e-07,
				0.7071067690849304
			]
		},
		{
			"mesh":0,
			"name":"Sphere",
			"skin":0
		},
		{
			"children":[
				2,
				1
			],
			"name":"Armature"
		}
	],
	"materials":[
		{
			"doubleSided":true,
			"name":"Material",
			"pbrMetallicRoughness":{
				"baseColorFactor":[
					0.8002997636795044,
					0,
					0.0005724796210415661,
					1
				],
				"metallicFactor":0,
				"roughnessFactor":0.5
			}
		}
	],
	"meshes":[
		{
			"name":"Sphere.002",
			"primitives":[
				{
					"attributes":{
						"POSITION":0,
						"NORMAL":1,
						"TEXCOORD_0":2,
						"JOINTS_0":3,
						"WEIGHTS_0":4
					},
					"indices":5,
					"material":0
				}
			]
		}
	],
	"skins":[
		{
			"inverseBindMatrices":6,
			"joints":[
				1,
				0
			],
			"name":"Armature"
		}
	],
	"accessors":[
		{
			"bufferView":0,
			"componentType":5126,
			"count":736,
			"max":[
				0.05013294517993927,
				1.00020170211792,
				0.05013296753168106
			],
			"min":[
				-0.05013294890522957,
				-7.058265327941626e-05,
				-0.05013292655348778
			],
			"type":"VEC3"
		},
		{
			"bufferView":1,
			"componentType":5126,
			"count":736,
			"type":"VEC3"
		},
		{
			"bufferView":2,
			"componentType":5126,
			"count":736,
			"type":"VEC2"
		},
		{
			"bufferView":3,
			"componentType":5121,
			"count":736,
			"type":"VEC4"
		},
		{
			"bufferView":4,
			"componentType":5126,
			"count":736,
			"type":"VEC4"
		},
		{
			"bufferView":5,
			"componentType":5123,
			"count":1824,
			"type":"SCALAR"
		},
		{
			"bufferView":6,
			"componentType":5126,
			"count":2,
			"type":"MAT4"
		}
	],
	"bufferViews":[
		{
			"buffer":0,
			"byteLength":8832,
			"byteOffset":0,
			"target":34962
		},
		{
			"buffer":0,
			"byteLength":8832,
			"byteOffset":8832,
			"target":34962
		},
		{
			"buffer":0,
			"byteLength":5888,
			"byteOffset":17664,
			"target":34962
		},
		{
			"buffer":0,
			"byteLength":2944,
			"byteOffset":23552,
			"target":34962
		},
		{
			"buffer":0,
			"byteLength":11776,
			"byteOffset":26496,
			"target":34962
		},
		{
			"buffer":0,
			"byteLength":3648,
			"byteOffset":38272,
			"target":34963
		},
		{
			"buffer":0,
			"byteLength":128,
			"byteOffset":41920
		}
	],
	"buffers":[
		{
			"byteLength":42048,
			"uri":"leg.bin"
		}
	]
}
